<?xml version="1.0" standalone="no"?>
<!DOCTYPE svg PUBLIC "-//W3C//DTD SVG 20010904//EN"
 "http://www.w3.org/TR/2001/REC-SVG-20010904/DTD/svg10.dtd">
<svg version="1.0" xmlns="http://www.w3.org/2000/svg"
 width="1170.000000pt" height="439.000000pt" viewBox="0 0 1170.000000 439.000000"
 preserveAspectRatio="xMidYMid meet">

<g transform="translate(0.000000,439.000000) scale(0.100000,-0.100000)"
fill="#000000" stroke="none">
<path d="M3350 4037 c-47 -5 -204 -10 -350 -12 -309 -4 -293 -3 -286 -13 3 -4
1 -25 -4 -45 -5 -24 -4 -39 3 -44 15 -9 1 -258 -18 -312 -9 -24 -13 -52 -9
-63 6 -21 -7 -55 -38 -96 -9 -13 -14 -30 -11 -38 3 -7 -1 -16 -9 -19 -9 -4
-12 -19 -10 -50 3 -30 0 -45 -8 -45 -6 0 -9 4 -5 9 3 5 1 12 -4 16 -12 7 -31
-26 -31 -54 0 -11 -6 -24 -14 -28 -8 -4 -16 -19 -18 -33 -2 -14 -9 -24 -17
-22 -9 2 -12 -4 -8 -20 7 -27 -6 -57 -18 -39 -8 14 -35 -4 -35 -24 0 -7 -7
-18 -15 -25 -8 -7 -12 -16 -9 -21 3 -5 0 -9 -5 -9 -6 0 -11 -4 -11 -10 0 -5
-16 -31 -36 -57 -20 -27 -31 -49 -25 -51 14 -5 15 -42 1 -42 -5 0 -10 7 -10
16 0 9 -21 -7 -50 -38 -52 -55 -57 -67 -39 -85 8 -8 7 -13 -2 -19 -8 -4 -15
-2 -17 5 -3 8 -14 4 -32 -14 -24 -23 -27 -31 -17 -46 6 -10 8 -22 4 -26 -5 -4
-12 -1 -17 6 -6 11 -15 7 -39 -20 -36 -39 -36 -41 -15 -74 20 -31 1 -33 -21
-2 -16 22 -16 22 -30 2 -19 -26 -28 -37 -54 -57 -20 -17 -30 -45 -12 -33 5 3
12 1 15 -4 3 -5 -2 -12 -12 -15 -33 -12 -64 -34 -93 -65 -15 -17 -33 -31 -38
-31 -6 0 -11 -5 -11 -10 0 -6 -12 -22 -27 -36 -19 -17 -24 -27 -15 -31 6 -2
12 -9 12 -15 0 -6 -7 -5 -16 3 -17 14 -29 3 -40 -39 -5 -17 -11 -21 -25 -17
-12 4 -21 1 -25 -9 -3 -9 -12 -16 -19 -16 -7 0 -19 -13 -26 -29 -7 -17 -22
-32 -32 -35 -10 -2 -25 -23 -35 -45 -12 -29 -22 -39 -33 -35 -9 2 -19 -2 -23
-11 -3 -8 -12 -15 -21 -15 -8 0 -15 -5 -15 -10 0 -10 -30 -41 -75 -78 -17 -15
-15 -39 3 -35 8 2 8 -5 0 -23 -12 -25 -12 -25 -20 -5 -9 24 -26 27 -34 6 -3
-8 -16 -17 -27 -21 -22 -7 -22 -7 -2 -14 21 -8 17 -10 -54 -36 -28 -10 -4 -13
34 -4 22 5 61 10 87 10 25 0 48 4 50 10 3 11 197 19 628 26 154 3 279 9 284
14 6 6 45 10 87 10 43 0 81 5 84 10 3 6 28 10 55 10 27 0 52 5 55 10 3 6 27
10 53 10 26 0 55 7 65 15 11 7 28 12 39 10 11 -3 27 2 35 10 8 8 21 15 28 15
8 0 30 9 50 20 19 11 51 29 70 40 20 11 42 20 50 20 8 0 14 6 13 13 -2 7 6 11
19 9 14 -2 23 4 28 18 4 11 15 20 26 20 24 0 53 26 44 40 -3 5 0 7 8 4 8 -3
20 2 27 10 7 9 16 14 20 11 4 -3 15 6 24 20 9 14 23 25 31 25 22 0 95 79 95
103 0 17 2 19 10 7 12 -20 45 0 90 54 19 24 40 41 45 39 6 -2 21 7 35 19 14
13 44 38 68 56 23 19 42 37 42 41 0 4 -17 7 -37 5 -49 -3 -47 -2 -33 -19 17
-20 -5 -20 -42 -1 -16 8 -28 11 -28 6 0 -8 -85 -16 -255 -24 -97 -5 -95 -4
-95 -22 0 -14 -3 -14 -15 -4 -8 7 -15 9 -15 5 0 -4 -7 -2 -15 5 -9 7 -18 10
-22 6 -3 -3 -2 -6 3 -6 6 0 10 -16 10 -35 0 -19 -4 -35 -8 -35 -4 0 -8 11 -8
25 0 15 -8 29 -21 36 -20 10 -21 9 -16 -10 3 -11 1 -21 -4 -21 -5 0 -9 4 -9 9
0 13 -39 21 -46 10 -3 -6 -11 -5 -20 2 -8 7 -24 8 -41 4 -16 -5 -91 -9 -168
-11 -77 -2 -169 -9 -205 -15 -88 -16 -134 -7 -150 30 -13 33 -3 58 44 105 24
24 27 32 17 47 -7 12 -7 19 -1 19 5 0 10 -4 10 -10 0 -19 15 -10 31 18 11 19
13 35 8 50 -5 12 -6 22 -3 22 2 0 8 -10 13 -22 8 -23 9 -22 43 14 20 20 38 50
41 66 4 20 12 29 23 28 10 0 25 14 36 34 11 19 35 50 54 69 19 19 34 40 34 48
0 7 4 13 9 13 5 0 17 18 27 40 10 22 24 40 31 40 7 0 13 11 13 26 0 14 4 22
10 19 16 -10 98 173 82 185 -12 9 -43 60 -36 60 4 0 15 -10 25 -22 20 -22 31
-19 34 10 1 9 7 29 13 44 6 15 14 72 18 126 6 95 8 101 33 113 14 7 35 14 46
14 11 1 32 2 47 3 22 2 26 6 21 20 -6 16 -5 16 14 -1 12 -10 30 -18 42 -18 11
1 31 1 43 1 12 1 27 5 33 10 6 5 74 10 150 11 77 1 143 6 146 11 4 6 103 10
247 9 213 -1 241 1 246 16 4 9 9 13 13 10 3 -4 13 -1 21 6 13 10 14 9 8 -1 -6
-10 47 -13 279 -11 197 1 291 -3 298 -10 7 -7 80 -11 213 -11 125 0 205 -4
209 -10 4 -6 56 -10 124 -10 70 0 121 -4 128 -11 6 -6 47 -10 94 -10 45 0 88
-4 95 -10 6 -5 42 -10 78 -11 43 -1 70 -6 78 -15 8 -10 31 -13 77 -12 42 2 66
-2 69 -9 5 -16 59 -15 65 1 4 10 6 10 6 0 1 -9 20 -13 61 -13 33 0 60 -4 60
-10 0 -5 22 -10 49 -10 28 0 53 -4 56 -10 3 -5 24 -10 46 -10 21 0 39 -4 39
-10 0 -5 16 -9 36 -8 20 1 39 -4 43 -10 4 -6 24 -11 46 -10 22 1 41 -4 43 -10
2 -7 19 -12 39 -12 19 0 41 -7 50 -16 9 -8 22 -13 29 -10 8 3 26 1 41 -5 14
-5 46 -10 70 -11 23 0 48 -7 54 -14 6 -8 19 -14 29 -14 9 0 20 -3 23 -7 4 -3
21 -8 39 -10 18 -2 37 -8 42 -13 6 -6 18 -10 28 -10 10 0 18 -4 18 -10 0 -5
13 -10 29 -10 17 0 33 -4 36 -10 3 -5 17 -10 30 -10 13 0 27 -4 30 -10 7 -12
95 -38 153 -45 31 -4 42 -2 42 8 0 8 7 14 15 14 13 0 13 -3 -2 -19 -9 -10 -22
-18 -30 -18 -7 0 -13 -4 -13 -10 0 -5 18 -10 41 -10 36 0 40 -2 34 -20 -8 -24
16 -28 35 -5 7 8 18 15 24 15 6 0 3 -5 -7 -11 -16 -10 -14 -13 20 -31 21 -11
43 -27 50 -35 7 -9 26 -16 43 -17 16 -1 32 -7 35 -13 2 -7 13 -13 24 -13 10 0
21 -9 24 -20 3 -13 10 -18 21 -14 10 4 18 0 22 -10 3 -9 12 -16 18 -16 7 0 22
-9 34 -20 12 -11 26 -20 32 -20 5 0 10 -4 10 -10 0 -5 9 -10 19 -10 11 0 21
-3 23 -7 2 -5 17 -16 34 -25 24 -14 34 -15 44 -5 10 10 12 9 7 -5 -6 -16 20
-48 40 -48 6 0 24 -13 40 -30 15 -16 36 -30 45 -30 10 0 18 -4 18 -9 0 -5 12
-8 26 -8 17 0 28 7 33 21 l8 21 7 -22 c4 -12 2 -31 -3 -42 -9 -16 -6 -21 23
-35 19 -9 39 -16 45 -16 6 0 11 -4 11 -10 0 -5 11 -12 24 -16 16 -4 23 -11 19
-20 -4 -10 0 -12 11 -8 12 5 15 2 10 -10 -4 -12 0 -16 15 -16 12 0 21 -4 21
-10 0 -5 9 -10 20 -10 11 0 20 -4 20 -8 0 -15 77 -52 94 -46 9 3 16 1 16 -6 0
-6 -5 -8 -11 -4 -7 4 -10 1 -7 -7 3 -8 19 -16 36 -19 17 -3 40 -17 52 -32 13
-17 31 -28 45 -28 14 0 39 -13 57 -29 18 -15 50 -34 71 -40 20 -7 37 -17 37
-23 0 -6 10 -8 25 -4 14 4 25 3 25 -2 0 -17 62 -44 90 -38 16 3 32 1 35 -4 3
-6 -1 -10 -9 -10 -26 0 -18 -17 11 -23 34 -6 53 1 47 18 -3 7 0 16 7 20 8 6
10 -1 7 -23 -4 -27 -1 -32 26 -43 17 -6 40 -15 51 -19 41 -17 61 -22 90 -26
16 -2 34 -9 39 -14 6 -6 24 -10 42 -10 18 0 34 -6 37 -14 3 -8 15 -12 30 -9
14 3 37 -3 52 -13 25 -16 29 -17 38 -3 8 13 13 13 32 -7 15 -15 30 -20 48 -17
19 4 29 0 33 -11 7 -19 64 -22 64 -4 0 6 10 1 21 -11 18 -19 29 -22 61 -18 28
4 41 1 45 -8 3 -10 22 -14 58 -14 30 1 60 -3 67 -7 7 -5 21 -7 31 -6 10 2 29
-4 43 -13 14 -9 33 -15 42 -12 9 2 29 -2 44 -10 17 -8 29 -9 33 -3 3 6 15 1
28 -11 12 -11 32 -19 44 -17 13 2 28 -5 36 -16 9 -13 18 -16 28 -10 8 5 22 7
32 6 9 -2 17 2 17 7 0 6 5 11 11 11 6 0 8 -9 4 -20 -5 -15 -2 -20 13 -20 11 0
23 5 25 10 3 6 4 5 3 -2 -3 -14 37 -38 63 -38 9 0 25 -7 35 -15 11 -8 30 -15
43 -15 13 0 26 -7 29 -15 4 -8 14 -15 23 -15 9 0 25 -7 35 -15 20 -15 41 -11
31 6 -4 5 1 9 10 9 9 0 14 -4 11 -9 -8 -13 29 -42 46 -36 10 4 17 -1 21 -15 3
-12 15 -24 26 -27 12 -3 21 -9 21 -14 0 -5 7 -9 15 -9 8 0 30 -9 49 -20 37
-20 58 -11 35 16 -10 13 -10 17 1 24 16 10 33 -8 23 -24 -4 -5 1 -7 10 -3 10
3 17 2 17 -2 0 -5 -7 -11 -15 -15 -26 -9 -17 -25 25 -43 22 -10 40 -21 40 -25
0 -5 6 -8 13 -8 6 -1 28 -14 47 -30 19 -17 40 -30 47 -30 6 0 29 -16 50 -35
21 -19 43 -35 50 -35 14 0 103 -90 103 -104 1 -11 45 -66 53 -66 2 0 14 9 27
20 27 24 36 20 19 -8 -7 -11 -19 -18 -26 -15 -18 7 -16 -8 6 -36 l19 -24 13
21 c16 25 29 29 29 8 0 -8 -9 -21 -20 -29 -18 -12 -18 -16 -5 -33 8 -10 15
-32 15 -47 0 -16 5 -37 11 -48 8 -17 7 -24 -8 -35 -19 -15 -28 -15 -228 4 -90
8 -151 -2 -123 -20 7 -4 9 -8 3 -9 -5 0 -18 -2 -28 -4 -14 -3 -16 -1 -7 10 10
11 8 13 -9 10 -33 -6 -42 -15 -36 -36 6 -17 4 -18 -17 -9 -32 15 -81 -3 -76
-28 2 -12 15 -18 48 -21 l45 -5 -54 -5 c-55 -6 -84 -30 -39 -32 17 -1 19 -2 5
-6 -27 -7 -48 15 -41 43 7 26 -4 30 -34 15 -9 -5 -29 -14 -43 -21 -20 -9 -25
-17 -21 -32 4 -17 1 -19 -17 -13 -12 4 -21 2 -21 -4 0 -12 72 -15 83 -4 4 3 2
12 -5 20 -16 19 -4 27 20 12 20 -12 20 -13 -6 -33 l-27 -21 55 -6 c30 -3 67
-9 83 -13 21 -7 27 -5 27 8 0 9 5 16 11 16 7 0 9 -10 7 -25 -5 -23 -2 -25 32
-25 21 0 43 -7 50 -15 8 -9 21 -13 32 -9 10 3 30 -2 44 -11 25 -16 70 -12 59
6 -11 16 3 10 29 -14 23 -21 35 -23 141 -25 71 0 113 3 110 9 -4 5 -2 9 4 9 5
0 11 -5 13 -11 2 -7 17 -7 48 1 25 7 57 12 73 11 27 0 38 14 16 21 -7 2 5 4
26 5 20 1 42 6 47 11 6 6 17 8 24 5 8 -3 14 0 14 6 0 20 -5 26 -17 23 -16 -4
-17 14 -2 24 6 3 9 24 7 45 -2 22 0 39 4 39 8 0 10 -10 12 -60 1 -29 36 -42
36 -13 0 27 -38 127 -50 131 -6 2 -10 10 -10 17 0 7 -7 15 -15 19 -8 3 -15 14
-15 25 0 11 -12 29 -27 41 -16 12 -31 29 -35 38 -6 15 -7 15 -7 0 -1 -10 -6
-18 -12 -18 -7 0 -9 12 -4 36 6 35 5 36 -20 32 -21 -4 -25 -2 -20 10 3 8 2 18
-2 21 -4 3 -16 20 -25 36 -10 17 -22 29 -28 27 -6 -1 -15 10 -21 25 -14 38
-40 55 -59 39 -32 -27 -43 -30 -31 -8 16 31 14 42 -14 52 -15 6 -25 17 -25 29
0 23 -30 37 -42 19 -8 -10 -11 -10 -15 0 -2 6 -11 12 -19 12 -8 0 -14 5 -14
11 0 7 10 9 27 4 l28 -7 -28 26 c-16 14 -32 26 -38 26 -5 0 -26 18 -48 40 -21
22 -42 40 -47 40 -4 0 -16 8 -26 17 -15 14 -21 15 -27 4 -6 -9 -11 -10 -15 -2
-4 6 -2 11 3 11 6 0 11 5 11 10 0 6 -11 8 -27 4 -23 -5 -26 -4 -16 6 10 11 -3
24 -69 67 -45 29 -87 53 -93 53 -7 0 -18 7 -25 15 -7 8 -17 15 -22 15 -5 0
-18 9 -30 20 -24 22 -58 26 -76 8 -9 -9 -15 -9 -24 1 -7 6 -14 16 -14 22 -1 5
-2 14 -3 19 -2 14 -28 12 -34 -2 -3 -7 -6 -2 -6 11 -1 18 -5 22 -21 18 -13 -3
-21 1 -25 13 -4 12 -20 21 -45 25 -22 4 -40 11 -40 16 0 5 -11 9 -25 9 -14 0
-42 9 -62 20 -21 11 -45 20 -55 20 -9 0 -20 5 -23 10 -3 6 -17 7 -31 4 -17 -4
-31 -1 -45 11 -16 16 -23 16 -43 5 -13 -7 -30 -10 -38 -7 -7 3 -3 6 10 6 27 1
28 12 2 29 -18 11 -22 10 -30 -10 -5 -13 -9 -17 -9 -10 -1 6 -1 15 -2 20 0 11
-37 22 -53 16 -8 -3 -20 3 -27 14 -11 15 -24 18 -66 16 -29 -1 -53 2 -53 7 0
16 -83 32 -102 20 -22 -13 -28 -14 -28 -2 0 5 8 11 18 14 13 3 11 6 -11 17
-26 13 -30 12 -39 -4 -8 -15 -12 -16 -26 -4 -39 32 -101 58 -108 47 -5 -9 -11
-7 -20 6 -7 10 -25 18 -39 18 -14 0 -25 3 -25 6 0 11 -114 43 -131 36 -9 -3
-23 3 -33 14 -10 11 -24 17 -31 15 -7 -3 -16 0 -20 5 -3 6 -11 9 -16 5 -5 -3
-16 -1 -23 6 -19 15 -66 2 -66 -18 0 -12 -3 -13 -11 -5 -9 9 -8 16 5 28 21 21
11 37 -18 29 -18 -4 -25 -1 -29 15 -3 12 -13 21 -24 21 -11 0 -28 7 -39 15
-25 19 -34 19 -34 0 0 -8 -4 -15 -10 -15 -5 0 -7 6 -5 13 5 11 -41 38 -74 43
-8 2 -27 12 -42 23 -20 15 -30 17 -35 9 -5 -7 -10 -4 -15 10 -10 25 -29 29
-29 6 0 -9 -22 7 -56 40 -42 43 -62 56 -85 56 -17 0 -32 6 -35 15 -4 8 -12 15
-19 15 -6 0 -20 9 -30 20 -10 11 -24 20 -31 20 -8 0 -21 11 -29 24 -11 16 -22
22 -35 19 -11 -3 -20 -9 -20 -14 0 -5 -7 -9 -15 -9 -8 0 -15 5 -15 10 0 6 7
10 15 10 28 0 14 25 -24 43 -20 9 -40 17 -44 17 -3 0 -19 12 -35 28 -73 67
-125 96 -157 88 -14 -4 -25 -2 -25 4 0 5 7 10 15 10 8 0 15 3 15 6 0 11 -29
34 -42 34 -8 0 -18 4 -24 10 -8 8 -38 17 -69 19 -5 1 -3 5 4 10 12 8 11 13
-10 30 -13 11 -29 20 -35 21 -6 0 -19 10 -30 21 -10 12 -28 26 -39 31 -11 5
-36 17 -55 28 -19 10 -38 16 -43 13 -4 -2 -7 -1 -6 4 4 22 -3 33 -20 33 -10 0
-26 10 -34 23 -13 17 -18 19 -25 9 -7 -11 -11 -9 -15 8 -3 13 -10 19 -17 15
-7 -4 -25 6 -41 23 -30 30 -79 49 -98 38 -5 -4 -12 3 -16 13 -3 11 -15 23 -26
26 -10 4 -19 11 -19 16 0 5 -9 9 -20 9 -11 0 -42 13 -68 30 -27 16 -61 31 -75
32 -14 1 -24 5 -21 9 2 4 -13 14 -34 24 -20 9 -46 21 -58 26 -11 6 -27 10 -35
8 -18 -3 -83 26 -104 47 -9 9 -27 16 -41 17 -13 0 -24 3 -24 8 0 5 -12 9 -26
9 -14 0 -32 7 -40 15 -10 9 -25 12 -44 8 -19 -3 -30 -1 -30 6 0 6 -6 11 -12
11 -7 0 -26 7 -42 15 -16 9 -50 18 -75 20 -24 3 -48 10 -52 16 -4 6 -20 10
-37 7 -17 -2 -29 -1 -26 4 3 4 -6 8 -19 8 -14 0 -28 7 -31 16 -5 12 -13 14
-33 9 -17 -4 -38 0 -60 12 -32 17 -33 17 -47 -2 -13 -18 -14 -18 -20 3 -4 13
-16 22 -27 22 -11 0 -18 -4 -14 -10 3 -5 -7 -3 -22 5 -15 8 -36 15 -45 15 -9
0 -20 5 -23 10 -4 6 -11 8 -16 5 -5 -4 -14 -3 -21 1 -6 4 -24 8 -40 9 -15 2
-43 10 -61 18 -20 10 -55 15 -88 14 -37 -1 -58 3 -65 12 -7 9 -30 14 -58 14
-30 0 -51 -5 -57 -14 -8 -12 -11 -12 -22 2 -22 28 -53 38 -107 33 -30 -2 -59
1 -66 7 -13 10 -48 14 -223 24 -52 2 -98 9 -101 15 -8 13 -144 18 -187 6 -27
-7 -33 -6 -33 7 0 22 -28 29 -39 10 -7 -13 -12 -14 -23 -6 -7 6 -54 11 -110
11 -55 -1 -103 4 -110 10 -8 6 -98 13 -223 16 -116 3 -255 10 -310 15 -121 11
-746 9 -865 -2z m874 -15 c3 -5 -1 -9 -9 -9 -8 0 -12 4 -9 9 3 4 7 8 9 8 2 0
6 -4 9 -8z m66 -14 c0 -18 -2 -20 -9 -8 -6 8 -7 18 -5 22 9 14 14 9 14 -14z
m-970 -10 c0 -18 -2 -20 -9 -8 -6 8 -7 18 -5 22 9 14 14 9 14 -14z m1010 -4
c0 -8 -5 -12 -10 -9 -6 4 -8 11 -5 16 9 14 15 11 15 -7z m-772 -19 c-8 -8
-162 -7 -165 1 -2 5 34 8 83 6 47 -2 84 -5 82 -7z m722 -14 c-14 -26 -29 -35
-26 -15 1 8 9 20 17 25 20 12 21 11 9 -10z m-941 0 c9 -6 10 -11 2 -15 -13 -8
-31 1 -31 15 0 11 11 11 29 0z m-462 -7 c-3 -3 -12 -4 -19 -1 -8 3 -5 6 6 6
11 1 17 -2 13 -5z m1493 -2 c0 -13 -12 -22 -22 -16 -10 6 -1 24 13 24 5 0 9
-4 9 -8z m580 -16 c0 -11 -19 -15 -25 -6 -3 5 1 10 9 10 9 0 16 -2 16 -4z
m360 0 c0 -2 -9 -6 -20 -9 -11 -3 -18 -1 -14 4 5 9 34 13 34 5z m625 -86 c3
-5 1 -10 -4 -10 -6 0 -11 5 -11 10 0 6 2 10 4 10 3 0 8 -4 11 -10z m-135 -4
c0 -3 -4 -8 -10 -11 -5 -3 -10 -1 -10 4 0 6 5 11 10 11 6 0 10 -2 10 -4z m225
-16 c3 -5 1 -10 -4 -10 -6 0 -11 5 -11 10 0 6 2 10 4 10 3 0 8 -4 11 -10z
m-1630 -20 c4 -6 -25 -10 -80 -10 -55 0 -84 4 -80 10 3 6 39 10 80 10 41 0 77
-4 80 -10z m1635 -24 c0 -9 -40 -13 -46 -5 -3 5 6 9 20 9 14 0 26 -2 26 -4z
m130 -20 c0 -11 -19 -15 -25 -6 -3 5 1 10 9 10 9 0 16 -2 16 -4z m-1955 -16
c3 -5 1 -10 -4 -10 -6 0 -11 5 -11 10 0 6 2 10 4 10 3 0 8 -4 11 -10z m-615
-20 c0 -5 -8 -10 -17 -10 -15 0 -16 2 -3 10 19 12 20 12 20 0z m-440 -4 c0 -2
-8 -10 -17 -17 -16 -13 -17 -12 -4 4 13 16 21 21 21 13z m2150 -11 c0 -8 -4
-15 -9 -15 -5 0 -14 7 -21 15 -10 13 -9 15 9 15 12 0 21 -6 21 -15z m75 -1
c13 -5 14 -8 3 -15 -19 -13 -28 -11 -28 6 0 17 2 18 25 9z m-2225 -34 c0 -5
-4 -10 -10 -10 -5 0 -10 5 -10 10 0 6 5 10 10 10 6 0 10 -4 10 -10z m2325 0
c-3 -5 -17 -10 -31 -10 -13 0 -24 5 -24 10 0 6 14 10 31 10 17 0 28 -4 24 -10z
m105 0 c0 -5 -8 -10 -17 -10 -15 0 -16 2 -3 10 19 12 20 12 20 0z m90 0 c0 -5
-4 -10 -10 -10 -5 0 -10 5 -10 10 0 6 5 10 10 10 6 0 10 -4 10 -10z m117 -6
c-3 -3 -12 -4 -19 -1 -8 3 -5 6 6 6 11 1 17 -2 13 -5z m913 -20 c0 -8 -4 -12
-10 -9 -5 3 -10 10 -10 16 0 5 5 9 10 9 6 0 10 -7 10 -16z m-813 0 c-3 -3 -12
-4 -19 -1 -8 3 -5 6 6 6 11 1 17 -2 13 -5z m917 -23 c4 -5 -3 -7 -14 -4 -23 6
-26 13 -6 13 8 0 17 -4 20 -9z m60 -18 c-5 -5 -12 -12 -16 -18 -4 -6 -8 -2 -8
8 0 9 7 17 17 17 9 0 12 -3 7 -7z m-224 -23 c0 -5 -5 -10 -11 -10 -5 0 -7 5
-4 10 3 6 8 10 11 10 2 0 4 -4 4 -10z m173 -20 c3 -11 1 -20 -4 -20 -5 0 -9 9
-9 20 0 11 2 20 4 20 2 0 6 -9 9 -20z m-4103 6 c0 -3 -4 -8 -10 -11 -5 -3 -10
-1 -10 4 0 6 5 11 10 11 6 0 10 -2 10 -4z m287 -68 c-3 -8 -6 -5 -6 6 -1 11 2
17 5 13 3 -3 4 -12 1 -19z m4246 -45 c-7 -2 -13 -11 -13 -19 0 -15 -9 -17 -35
-7 -15 5 -14 8 6 19 13 7 31 13 39 13 10 0 11 -2 3 -6z m-4560 -9 c3 -3 3 -13
0 -21 -5 -12 -7 -12 -14 -1 -15 23 -4 40 14 22z m4562 -52 c-3 -3 -11 0 -18 7
-9 10 -8 11 6 5 10 -3 15 -9 12 -12z m-305 -17 c0 -8 -4 -15 -10 -15 -5 0 -10
7 -10 15 0 8 5 15 10 15 6 0 10 -7 10 -15z m60 -5 c0 -5 -2 -10 -4 -10 -3 0
-8 5 -11 10 -3 6 -1 10 4 10 6 0 11 -4 11 -10z m-4343 -37 c-3 -10 -5 -4 -5
12 0 17 2 24 5 18 2 -7 2 -21 0 -30z m4563 2 c-7 -8 -16 -12 -21 -9 -13 8 -1
24 18 24 13 0 13 -3 3 -15z m-4315 -5 c-3 -5 -10 -10 -16 -10 -5 0 -9 5 -9 10
0 6 7 10 16 10 8 0 12 -4 9 -10z m4175 0 c0 -5 -2 -10 -4 -10 -3 0 -8 5 -11
10 -3 6 -1 10 4 10 6 0 11 -4 11 -10z m65 -10 c-3 -5 -14 -10 -23 -10 -15 0
-15 2 -2 10 20 13 33 13 25 0z m160 -9 c3 -5 0 -13 -6 -17 -8 -5 -9 -3 -4 6 6
10 4 12 -9 7 -10 -4 -15 -3 -11 3 8 13 22 13 30 1z m185 0 c0 -6 -4 -12 -8
-15 -5 -3 -9 1 -9 9 0 8 4 15 9 15 4 0 8 -4 8 -9z m-4780 -22 c0 -5 -4 -9 -10
-9 -5 0 -10 7 -10 16 0 8 5 12 10 9 6 -3 10 -10 10 -16z m230 -19 c0 -5 -7
-10 -15 -10 -8 0 -15 5 -15 10 0 6 7 10 15 10 8 0 15 -4 15 -10z m-260 -20 c0
-13 -5 -18 -15 -14 -12 5 -13 10 -4 20 15 19 19 18 19 -6z m257 -37 c-3 -3
-11 -2 -17 2 -9 6 -9 10 1 16 14 8 27 -7 16 -18z m4463 2 c0 -9 -9 -15 -25
-15 -14 0 -25 4 -25 10 0 5 7 6 17 3 11 -4 14 -3 9 5 -4 7 -1 12 8 12 9 0 16
-7 16 -15z m130 5 c0 -5 -4 -10 -10 -10 -5 0 -10 5 -10 10 0 6 5 10 10 10 6 0
10 -4 10 -10z m37 -32 c-3 -7 -5 -2 -5 12 0 14 2 19 5 13 2 -7 2 -19 0 -25z
m-127 12 c0 -5 -2 -10 -4 -10 -3 0 -8 5 -11 10 -3 6 -1 10 4 10 6 0 11 -4 11
-10z m10 -41 c0 -5 -4 -9 -10 -9 -5 0 -10 7 -10 16 0 8 5 12 10 9 6 -3 10 -10
10 -16z m35 12 c3 -5 1 -12 -5 -16 -5 -3 -10 1 -10 9 0 18 6 21 15 7z m68 -48
c-5 -12 -9 -10 -19 8 -19 35 -17 45 5 25 11 -10 17 -25 14 -33z m247 -3 c0 -5
-5 -10 -11 -10 -5 0 -7 5 -4 10 3 6 8 10 11 10 2 0 4 -4 4 -10z m-5054 -67
c-10 -10 -19 5 -10 18 6 11 8 11 12 0 2 -7 1 -15 -2 -18z m5006 -1 c-7 -2 -12
-10 -12 -18 0 -16 -2 -16 -24 -8 -12 5 -10 10 12 29 16 14 29 19 31 12 2 -6
-1 -13 -7 -15z m136 10 c2 -7 -6 -11 -22 -10 -19 2 -22 5 -14 15 12 15 30 13
36 -5z m-5398 -12 c0 -5 -7 -7 -15 -4 -8 4 -15 8 -15 10 0 2 7 4 15 4 8 0 15
-4 15 -10z m319 -26 c-33 -18 -41 -17 -28 5 8 11 19 16 32 13 18 -5 18 -6 -4
-18z m-279 -10 c0 -2 -7 -4 -15 -4 -8 0 -15 4 -15 10 0 5 7 7 15 4 8 -4 15 -8
15 -10z m5469 -17 c-2 -1 -12 -9 -22 -16 -15 -12 -17 -12 -11 3 3 9 13 16 22
16 8 0 13 -1 11 -3z m-5589 -33 c0 -8 -5 -12 -10 -9 -6 4 -8 11 -5 16 9 14 15
11 15 -7z m344 -15 c-6 -11 -24 -2 -24 11 0 5 7 7 15 4 8 -4 12 -10 9 -15z
m-214 1 c0 -5 -7 -10 -16 -10 -8 0 -12 5 -9 10 3 6 10 10 16 10 5 0 9 -4 9
-10z m5460 -16 c0 -8 -4 -14 -10 -14 -5 0 -10 9 -10 21 0 11 5 17 10 14 6 -3
10 -13 10 -21z m-5553 -6 c-3 -8 -6 -5 -6 6 -1 11 2 17 5 13 3 -3 4 -12 1 -19z
m5591 -35 c-4 -22 -22 -20 -26 1 -2 10 3 16 13 16 10 0 15 -7 13 -17z m-111
-40 c-3 -2 -13 -3 -23 -1 -16 3 -16 4 2 22 18 18 19 18 22 2 2 -10 1 -20 -1
-23z m240 1 c-9 -9 -28 6 -21 18 4 6 10 6 17 -1 6 -6 8 -13 4 -17z m-5817 -13
c0 -11 -4 -23 -10 -26 -6 -4 -10 5 -10 19 0 14 5 26 10 26 6 0 10 -9 10 -19z
m5730 -38 c0 -30 -9 -27 -15 6 -2 11 0 21 6 21 5 0 9 -12 9 -27z m-40 3 c0 -3
-4 -8 -10 -11 -5 -3 -10 -1 -10 4 0 6 5 11 10 11 6 0 10 -2 10 -4z m197 -2
c-3 -3 -12 -4 -19 -1 -8 3 -5 6 6 6 11 1 17 -2 13 -5z m-80 -36 c-3 -8 -6 -5
-6 6 -1 11 2 17 5 13 3 -3 4 -12 1 -19z m48 -7 c3 -5 2 -12 -3 -15 -5 -3 -9 1
-9 9 0 17 3 19 12 6z m-5880 -20 c3 -5 1 -12 -5 -16 -5 -3 -10 1 -10 9 0 18 6
21 15 7z m5925 -1 c0 -5 -4 -10 -10 -10 -5 0 -10 5 -10 10 0 6 5 10 10 10 6 0
10 -4 10 -10z m14 -49 c11 -13 14 -21 7 -26 -6 -3 -14 1 -17 10 -4 8 -11 15
-18 14 -29 -3 -41 3 -21 11 29 12 30 12 49 -9z m-5794 -21 c0 -5 -5 -10 -11
-10 -5 0 -7 5 -4 10 3 6 8 10 11 10 2 0 4 -4 4 -10z m6050 -26 c0 -8 -6 -11
-15 -8 -8 4 -15 9 -15 13 0 4 7 8 15 8 8 0 15 -6 15 -13z m-245 -4 c3 -5 1
-10 -4 -10 -6 0 -11 5 -11 10 0 6 2 10 4 10 3 0 8 -4 11 -10z m215 -21 c0 -5
-7 -9 -15 -9 -15 0 -20 12 -9 23 8 8 24 -1 24 -14z m97 -45 c14 -30 6 -56 -9
-30 -5 9 -18 16 -28 16 -13 0 -20 7 -20 20 0 31 42 26 57 -6z m-6387 -4 c0 -5
-5 -10 -11 -10 -5 0 -7 5 -4 10 3 6 8 10 11 10 2 0 4 -4 4 -10z m6320 -30 c0
-5 -9 -6 -20 -3 -11 3 -17 9 -15 14 7 10 35 1 35 -11z m-6100 -31 c0 -5 -4 -9
-10 -9 -5 0 -10 7 -10 16 0 8 5 12 10 9 6 -3 10 -10 10 -16z m1176 -18 c-4 -6
-16 -11 -27 -11 -18 0 -18 1 -1 19 17 18 40 12 28 -8z m4962 12 c-10 -2 -18
-9 -18 -15 0 -6 -3 -9 -6 -5 -10 10 6 27 24 26 15 -1 15 -2 0 -6z m-5103 -23
c3 -6 -1 -7 -9 -4 -18 7 -21 14 -7 14 6 0 13 -4 16 -10z m5160 0 c-3 -5 -10
-10 -16 -10 -5 0 -9 5 -9 10 0 6 7 10 16 10 8 0 12 -4 9 -10z m-5415 -14 c0
-2 -7 -7 -16 -10 -8 -3 -12 -2 -9 4 6 10 25 14 25 6z m5710 -6 c0 -5 -4 -10
-10 -10 -5 0 -10 5 -10 10 0 6 5 10 10 10 6 0 10 -4 10 -10z m-6471 -23 c13
-16 5 -27 -21 -27 -18 0 -25 20 -11 33 10 10 19 8 32 -6z m384 6 c-7 -2 -19
-2 -25 0 -7 3 -2 5 12 5 14 0 19 -2 13 -5z m6017 -3 c0 -5 -2 -10 -4 -10 -3 0
-8 5 -11 10 -3 6 -1 10 4 10 6 0 11 -4 11 -10z m-6310 -20 c12 -8 11 -10 -7
-10 -13 0 -23 5 -23 10 0 13 11 13 30 0z m110 0 c0 -5 -9 -10 -20 -10 -11 0
-20 5 -20 10 0 6 9 10 20 10 11 0 20 -4 20 -10z m267 4 c-3 -3 -12 -4 -19 -1
-8 3 -5 6 6 6 11 1 17 -2 13 -5z m313 2 c0 -3 -4 -8 -10 -11 -5 -3 -10 -1 -10
4 0 6 5 11 10 11 6 0 10 -2 10 -4z m5719 -10 c7 -8 8 -17 3 -19 -4 -3 -13 3
-20 14 -14 22 0 26 17 5z m-6149 -16 c12 -8 9 -10 -12 -10 -16 0 -28 5 -28 10
0 13 20 13 40 0z m380 0 c0 -5 -2 -10 -4 -10 -3 0 -8 5 -11 10 -3 6 -1 10 4
10 6 0 11 -4 11 -10z m270 -21 c15 -28 4 -38 -15 -13 -17 22 -19 34 -5 34 5 0
14 -9 20 -21z m5555 -19 c-3 -5 -16 -10 -28 -9 -20 1 -20 2 3 9 14 4 26 8 28
9 2 1 0 -3 -3 -9z m-5755 -4 c0 -11 -19 -15 -25 -6 -3 5 1 10 9 10 9 0 16 -2
16 -4z m120 -22 c0 -8 -5 -12 -10 -9 -6 4 -8 11 -5 16 9 14 15 11 15 -7z
m5545 7 c3 -5 1 -12 -5 -16 -5 -3 -10 1 -10 9 0 18 6 21 15 7z m317 -47 c-6
-35 -12 -29 -12 14 0 23 3 32 9 24 4 -7 6 -24 3 -38z m-42 32 c0 -3 -4 -8 -10
-11 -5 -3 -10 -1 -10 4 0 6 5 11 10 11 6 0 10 -2 10 -4z m-212 -23 c6 -19 -35
-16 -42 3 -4 11 0 15 16 12 12 -2 23 -9 26 -15z m289 -20 c-3 -10 -5 -4 -5 12
0 17 2 24 5 18 2 -7 2 -21 0 -30z m-5943 -14 c-3 -5 -10 -7 -15 -3 -5 3 -7 10
-3 15 3 5 10 7 15 3 5 -3 7 -10 3 -15z m5758 -21 c-6 -6 -16 -7 -22 -3 -9 6
-9 9 1 16 17 10 34 0 21 -13z m88 12 c0 -5 -5 -10 -11 -10 -5 0 -7 5 -4 10 3
6 8 10 11 10 2 0 4 -4 4 -10z m202 -12 c-7 -7 -12 -8 -12 -2 0 14 12 26 19 19
2 -3 -1 -11 -7 -17z m62 -17 c3 -5 0 -11 -8 -14 -15 -6 -26 1 -26 15 0 11 27
10 34 -1z m-6334 -21 c0 -5 -4 -10 -10 -10 -5 0 -10 5 -10 10 0 6 5 10 10 10
6 0 10 -4 10 -10z m57 -26 c-3 -3 -12 -4 -19 -1 -8 3 -5 6 6 6 11 1 17 -2 13
-5z m-47 -19 c0 -2 -7 -5 -15 -9 -9 -3 -15 0 -15 9 0 9 6 12 15 9 8 -4 15 -7
15 -9z m-170 1 c0 -11 -19 -15 -25 -6 -3 5 1 10 9 10 9 0 16 -2 16 -4z m6560
-26 c-19 -13 -30 -13 -30 0 0 6 10 10 23 10 18 0 19 -2 7 -10z m-6376 -9 c3
-5 -1 -14 -9 -21 -13 -10 -15 -9 -15 9 0 21 14 28 24 12z m6499 -8 c-7 -2 -21
-2 -30 0 -10 3 -4 5 12 5 17 0 24 -2 18 -5z m177 -8 c0 -8 -9 -15 -20 -15 -13
0 -18 5 -14 15 4 8 12 15 20 15 8 0 14 -7 14 -15z m-8100 -16 c0 -5 -4 -9 -10
-9 -5 0 -10 7 -10 16 0 8 5 12 10 9 6 -3 10 -10 10 -16z m8200 10 c0 -10 -23
-17 -37 -11 -7 2 -11 8 -8 12 6 10 45 9 45 -1z m-6820 -30 c0 -5 -4 -9 -10 -9
-5 0 -10 7 -10 16 0 8 5 12 10 9 6 -3 10 -10 10 -16z m-155 -59 c3 -5 1 -10
-4 -10 -6 0 -11 5 -11 10 0 6 2 10 4 10 3 0 8 -4 11 -10z m-105 -45 c0 -16
-35 -21 -44 -6 -8 12 4 21 26 21 10 0 18 -7 18 -15z m-253 -15 c-5 -30 -12
-32 -15 -5 -1 14 3 25 8 25 5 0 9 -9 7 -20z m7897 -60 c9 0 16 -5 16 -10 0 -6
-15 -4 -36 5 -20 8 -39 15 -43 15 -3 0 1 5 9 10 11 7 18 5 26 -5 6 -8 19 -15
28 -15z m-114 10 c0 -5 -2 -10 -4 -10 -3 0 -8 5 -11 10 -3 6 -1 10 4 10 6 0
11 -4 11 -10z m187 -29 c0 -11 -5 -18 -9 -15 -4 3 -5 11 -1 19 7 21 12 19 10
-4z m13 -52 c0 -5 -4 -9 -10 -9 -5 0 -10 7 -10 16 0 8 5 12 10 9 6 -3 10 -10
10 -16z m160 -34 c0 -8 -2 -15 -4 -15 -2 0 -6 7 -10 15 -3 8 -1 15 4 15 6 0
10 -7 10 -15z m70 -25 c0 -5 -5 -10 -11 -10 -5 0 -7 5 -4 10 3 6 8 10 11 10 2
0 4 -4 4 -10z m-11 -62 c7 -11 10 -23 7 -26 -7 -6 -56 37 -56 49 0 14 36 -3
49 -23z m145 -33 c3 -9 0 -15 -9 -15 -8 0 -15 7 -15 15 0 8 4 15 9 15 5 0 11
-7 15 -15z m-37 -57 c-3 -8 -6 -5 -6 6 -1 11 2 17 5 13 3 -3 4 -12 1 -19z
m138 -97 c3 -5 1 -12 -5 -16 -5 -3 -10 1 -10 9 0 18 6 21 15 7z m63 -88 c-14
-17 -38 8 -38 39 l0 23 24 -25 c16 -17 20 -29 14 -37z m107 -33 c3 -5 2 -10
-4 -10 -5 0 -13 5 -16 10 -3 6 -2 10 4 10 5 0 13 -4 16 -10z m15 -100 c0 -5
-2 -10 -4 -10 -3 0 -8 5 -11 10 -3 6 -1 10 4 10 6 0 11 -4 11 -10z m90 -55
c10 -12 10 -15 -4 -15 -9 0 -16 7 -16 15 0 8 2 15 4 15 2 0 9 -7 16 -15z m105
-103 c0 -12 -4 -22 -8 -22 -4 0 -12 0 -17 0 -7 0 -7 6 -2 18 5 9 7 23 5 30 -3
7 -2 20 2 30 7 14 9 13 15 -8 3 -14 6 -35 5 -48z m-235 -32 c0 -5 -5 -10 -11
-10 -5 0 -7 5 -4 10 3 6 8 10 11 10 2 0 4 -4 4 -10z m235 -20 c3 -5 -3 -10
-15 -10 -12 0 -18 5 -15 10 3 6 10 10 15 10 5 0 12 -4 15 -10z m43 -2 c-6 -18
-28 -21 -28 -4 0 9 7 16 16 16 9 0 14 -5 12 -12z m-278 -25 c2 -2 -14 -3 -37
-2 -23 2 -40 6 -37 11 4 7 63 0 74 -9z m-110 -3 c0 -5 -5 -10 -11 -10 -5 0 -7
5 -4 10 3 6 8 10 11 10 2 0 4 -4 4 -10z m-270 -36 c0 -16 -16 -19 -25 -4 -8
13 4 32 16 25 5 -4 9 -13 9 -21z m647 -6 c-3 -8 -6 -5 -6 6 -1 11 2 17 5 13 3
-3 4 -12 1 -19z m-11 -35 c-10 -11 -37 -12 -30 -2 3 5 12 9 21 9 9 0 13 -3 9
-7z m-46 -33 c0 -5 -5 -12 -11 -16 -12 -7 -31 15 -23 28 6 9 34 -1 34 -12z
m-533 -15 c9 -25 -2 -27 -22 -5 -17 18 -17 20 -1 20 9 0 19 -7 23 -15z"/>
<path d="M6147 2419 c-10 -6 -28 -9 -40 -8 -12 1 -35 -3 -50 -9 -16 -7 -35
-12 -43 -12 -8 0 -12 -4 -9 -10 3 -6 -1 -7 -10 -4 -8 4 -26 -1 -40 -10 -13 -9
-35 -16 -48 -16 -25 0 -67 -41 -67 -65 0 -8 -4 -15 -10 -15 -5 0 -10 7 -10 17
0 15 -1 15 -18 0 -10 -10 -24 -17 -30 -17 -6 0 -19 -11 -29 -23 -10 -13 -36
-35 -58 -49 -22 -14 -58 -45 -80 -68 l-40 -42 40 7 c22 3 42 11 43 16 2 5 8 9
13 9 4 0 6 -6 3 -14 -4 -11 10 -14 67 -15 70 -1 86 5 39 14 -32 6 -37 14 -9
13 13 -1 31 -6 39 -12 39 -28 64 -36 115 -36 36 0 55 4 55 12 0 9 3 9 12 0 10
-10 16 -8 31 10 9 13 16 19 15 13 -1 -5 2 -20 6 -33 7 -21 13 -23 59 -20 29 1
74 -4 101 -12 35 -9 51 -10 53 -3 4 12 74 -3 83 -18 3 -5 36 -10 73 -12 37 -2
73 -9 79 -15 17 -17 38 -15 38 3 0 8 5 15 10 15 6 0 9 -5 8 -12 -2 -9 18 -12
69 -13 44 0 77 -5 84 -12 16 -16 189 -17 274 -2 33 6 70 12 82 14 48 7 89 18
113 30 41 20 73 33 102 39 14 3 40 17 56 31 17 14 37 25 45 25 8 0 18 7 21 16
4 10 -3 18 -24 26 -17 5 -30 14 -30 19 0 12 17 12 24 0 10 -15 76 -23 92 -10
17 14 19 61 2 57 -7 -1 -23 3 -35 10 -17 9 -28 9 -57 -3 -44 -19 -46 -19 -46
0 0 8 -3 15 -7 16 -42 4 -64 7 -95 13 -25 5 -38 4 -38 -4 0 -7 -6 -8 -18 -1
-14 7 -25 6 -40 -5 -29 -20 -28 -8 1 17 l22 20 -22 -6 c-12 -3 -24 -1 -28 5
-3 5 -28 10 -55 10 -31 0 -50 5 -53 14 -3 8 -21 13 -46 13 -22 0 -47 6 -55 12
-11 9 -20 9 -34 2 -16 -8 -26 -6 -47 11 -21 17 -31 19 -45 11 -9 -7 -23 -8
-30 -3 -20 12 -33 1 -19 -16 8 -10 8 -14 0 -14 -6 0 -11 5 -11 11 0 6 -9 9
-20 6 -13 -3 -20 0 -20 9 0 8 6 14 13 14 6 1 -3 7 -22 15 -18 8 -61 15 -95 15
-36 0 -67 5 -74 13 -8 7 -48 13 -100 15 -123 4 -125 4 -147 2 -11 -1 -29 1
-40 4 -11 3 -28 1 -38 -5z m-187 -99 c0 -5 -2 -10 -4 -10 -3 0 -8 5 -11 10 -3
6 -1 10 4 10 6 0 11 -4 11 -10z m680 0 c0 -5 -2 -10 -4 -10 -3 0 -8 5 -11 10
-3 6 -1 10 4 10 6 0 11 -4 11 -10z m-755 -20 c-3 -5 -10 -10 -16 -10 -5 0 -9
5 -9 10 0 6 7 10 16 10 8 0 12 -4 9 -10z m1055 -20 c0 -5 -9 -10 -20 -10 -11
0 -20 5 -20 10 0 6 9 10 20 10 11 0 20 -4 20 -10z m-256 -8 c3 -5 -1 -9 -9 -9
-8 0 -12 4 -9 9 3 4 7 8 9 8 2 0 6 -4 9 -8z m-877 -34 c-3 -8 -6 -5 -6 6 -1
11 2 17 5 13 3 -3 4 -12 1 -19z m93 6 c0 -8 -5 -12 -10 -9 -6 4 -8 11 -5 16 9
14 15 11 15 -7z m1091 -17 c-8 -8 -11 -7 -11 4 0 20 13 34 18 19 3 -7 -1 -17
-7 -23z m53 18 c-4 -8 -10 -15 -15 -15 -4 0 -6 7 -3 15 4 8 10 15 15 15 4 0 6
-7 3 -15z m151 -46 c-4 -5 -13 -9 -22 -9 -13 0 -13 3 -3 15 13 15 35 11 25 -6z
m222 -5 c-3 -3 -12 -4 -19 -1 -8 3 -5 6 6 6 11 1 17 -2 13 -5z m-1723 -45 c-3
-5 -10 -7 -15 -3 -5 3 -7 10 -3 15 3 5 10 7 15 3 5 -3 7 -10 3 -15z m173 5
c-3 -3 -12 -4 -19 -1 -8 3 -5 6 6 6 11 1 17 -2 13 -5z m1368 -14 c3 -6 -4 -10
-17 -10 -18 0 -20 2 -8 10 19 12 18 12 25 0z m-85 -110 c0 -5 -7 -10 -16 -10
-8 0 -12 5 -9 10 3 6 10 10 16 10 5 0 9 -4 9 -10z"/>
<path d="M3803 1927 c-2 -4 -15 -4 -29 -1 -14 4 -24 2 -24 -5 0 -7 -25 -11
-68 -11 -37 0 -72 -4 -77 -9 -6 -5 -40 -11 -77 -13 -53 -3 -71 -8 -82 -23 -15
-20 -15 -20 -30 0 -14 20 -15 20 -39 -4 -14 -12 -31 -20 -37 -16 -6 4 -22 -1
-36 -10 -13 -9 -29 -13 -34 -10 -15 9 -60 -6 -60 -21 0 -8 -4 -14 -10 -14 -5
0 -10 5 -10 11 0 7 -10 5 -25 -5 -14 -9 -29 -14 -34 -12 -5 3 -14 -1 -21 -9
-7 -8 -18 -15 -25 -15 -7 0 -24 -11 -39 -25 -14 -13 -32 -22 -39 -19 -7 2 -23
-7 -35 -21 -12 -14 -27 -25 -33 -25 -7 0 -19 -8 -28 -18 -9 -10 -30 -28 -48
-40 -17 -12 -35 -31 -38 -42 -3 -10 -15 -22 -26 -25 -10 -4 -19 -11 -19 -16 0
-5 -9 -18 -20 -29 -12 -12 -17 -26 -13 -37 6 -15 4 -16 -9 -5 -14 11 -25 5
-77 -50 -33 -35 -61 -71 -61 -80 0 -9 -3 -23 -6 -32 -4 -12 0 -16 15 -16 16 0
21 6 21 28 0 20 3 23 9 12 6 -8 7 -18 5 -22 -7 -11 1 -10 30 3 28 13 24 39 -5
39 -10 0 -19 7 -19 15 0 18 12 19 28 3 9 -9 12 -6 12 16 0 15 4 25 9 22 5 -3
7 -20 5 -37 l-4 -31 43 7 c23 3 69 10 102 13 33 4 65 11 72 15 7 4 224 7 482
7 308 0 472 3 476 10 3 5 19 10 36 10 19 0 29 5 29 15 0 8 7 15 16 15 12 0 14
-3 6 -13 -8 -10 -6 -13 11 -14 11 -1 27 3 34 9 7 6 34 10 60 10 26 -1 50 3 54
9 3 6 18 12 33 12 14 1 26 7 26 14 0 19 18 25 39 11 16 -10 23 -10 33 0 9 9 8
12 -7 12 -20 1 -20 1 0 15 17 13 20 13 28 0 11 -21 27 -19 69 10 20 14 48 25
61 25 14 0 31 10 40 23 14 19 18 20 26 7 6 -8 11 -10 11 -5 0 11 46 35 68 35
9 0 12 6 8 16 -4 11 -2 15 7 11 8 -3 27 5 43 19 16 13 37 23 46 24 10 0 23 9
30 20 7 11 20 20 28 20 8 0 36 20 61 43 25 24 50 42 55 40 6 -2 19 15 31 37
19 37 21 39 26 19 6 -23 6 -23 32 6 14 17 25 34 25 38 0 12 22 32 44 40 41 16
-2 20 -201 17 -114 -1 -323 -1 -463 1 -429 5 -512 4 -517 -4z m973 -54 c-10
-10 -19 5 -10 18 6 11 8 11 12 0 2 -7 1 -15 -2 -18z m-2 -62 c-8 -9 -34 10
-34 25 0 16 2 16 19 -2 10 -10 17 -21 15 -23z m-9 -51 c3 -5 -3 -10 -15 -10
-12 0 -18 5 -15 10 3 6 10 10 15 10 5 0 12 -4 15 -10z m-155 -86 c0 -8 -4 -14
-10 -14 -5 0 -10 9 -10 21 0 11 5 17 10 14 6 -3 10 -13 10 -21z m-183 -30 c-3
-3 -12 -4 -19 -1 -8 3 -5 6 6 6 11 1 17 -2 13 -5z m-1547 -57 c0 -21 -26 -50
-40 -45 -10 3 -9 8 4 20 9 9 16 21 16 27 0 6 5 11 10 11 6 0 10 -6 10 -13z
m1620 -1 c0 -9 -30 -14 -35 -6 -4 6 3 10 14 10 12 0 21 -2 21 -4z m-349 -100
c5 3 9 0 9 -6 0 -15 -23 -7 -26 8 -1 7 0 8 3 2 2 -5 9 -8 14 -4z m-1271 -6 c0
-5 -4 -10 -10 -10 -5 0 -10 5 -10 10 0 6 5 10 10 10 6 0 10 -4 10 -10z m-30
-46 c0 -8 -4 -12 -10 -9 -5 3 -10 10 -10 16 0 5 5 9 10 9 6 0 10 -7 10 -16z
m217 0 c-3 -3 -12 -4 -19 -1 -8 3 -5 6 6 6 11 1 17 -2 13 -5z m271 -1 c-49 -2
-127 -2 -175 0 -49 1 -9 3 87 3 96 0 136 -2 88 -3z m340 0 c-21 -2 -57 -2 -80
0 -24 2 -7 4 37 4 44 0 63 -2 43 -4z m-788 -37 c0 -2 -7 -6 -15 -10 -8 -3 -15
-1 -15 4 0 6 7 10 15 10 8 0 15 -2 15 -4z m-140 -36 c0 -5 -5 -10 -11 -10 -5
0 -7 5 -4 10 3 6 8 10 11 10 2 0 4 -4 4 -10z"/>
<path d="M8715 1730 c-4 -6 -24 -10 -46 -8 -21 1 -44 -3 -51 -10 -7 -7 -22
-12 -34 -12 -13 0 -26 -5 -30 -11 -3 -6 -15 -8 -26 -6 -11 3 -27 -2 -39 -14
-10 -10 -23 -19 -28 -19 -5 0 -13 -9 -16 -21 -6 -19 -7 -20 -20 -2 -13 17 -14
17 -21 0 -3 -10 -12 -16 -19 -13 -17 6 -44 -14 -27 -21 6 -2 10 -9 7 -14 -4
-5 -13 -4 -23 2 -12 8 -26 6 -52 -5 l-35 -15 73 -1 c41 0 72 -4 72 -10 0 -5
13 -10 29 -10 17 0 33 -5 36 -10 4 -6 10 -8 14 -6 13 8 115 -26 127 -43 9 -12
15 -13 26 -4 11 10 17 8 27 -8 8 -13 19 -19 31 -16 11 3 25 -2 31 -10 8 -9 21
-12 35 -9 13 4 26 1 30 -5 4 -7 22 -9 48 -6 34 5 46 2 59 -13 14 -17 30 -20
93 -20 41 0 85 5 97 12 12 6 40 13 62 14 57 4 115 20 128 37 13 16 51 32 42
18 -9 -15 14 -24 29 -12 7 6 34 14 59 17 30 4 44 11 41 19 -3 8 4 10 24 7 25
-3 30 0 34 22 4 21 0 29 -24 40 -16 8 -35 13 -43 10 -7 -3 -16 -1 -20 5 -3 6
-19 11 -35 11 -15 0 -31 6 -34 13 -3 9 -9 7 -19 -5 -17 -21 -28 -23 -21 -4 6
16 -21 46 -41 46 -21 0 -29 -19 -11 -26 9 -3 14 -10 11 -15 -6 -9 -35 -1 -33
9 0 4 0 15 -1 24 -1 21 -41 35 -51 18 -6 -9 -11 -7 -18 7 -7 13 -22 20 -45 21
-18 1 -46 8 -61 16 -16 8 -34 12 -42 9 -7 -2 -19 -1 -26 3 -12 8 -90 15 -175
17 -18 0 -33 4 -33 9 0 12 -58 10 -65 -2z m-105 -76 c0 -8 -4 -12 -10 -9 -5 3
-10 10 -10 16 0 5 5 9 10 9 6 0 10 -7 10 -16z m440 1 c0 -8 -4 -15 -10 -15 -5
0 -7 7 -4 15 4 8 8 15 10 15 2 0 4 -7 4 -15z m-505 -14 c3 -5 2 -12 -3 -15 -5
-3 -9 1 -9 9 0 17 3 19 12 6z m-65 -11 c0 -5 -5 -10 -11 -10 -5 0 -7 5 -4 10
3 6 8 10 11 10 2 0 4 -4 4 -10z m680 -22 c0 -4 -4 -8 -9 -8 -6 0 -12 4 -15 8
-3 5 1 9 9 9 8 0 15 -4 15 -9z m-643 -4 c-3 -3 -12 -4 -19 -1 -8 3 -5 6 6 6
11 1 17 -2 13 -5z m753 -38 c0 -2 -9 -6 -20 -9 -11 -3 -20 -1 -20 4 0 5 9 9
20 9 11 0 20 -2 20 -4z m-245 -46 c3 -5 -1 -10 -9 -10 -9 0 -16 5 -16 10 0 6
4 10 9 10 6 0 13 -4 16 -10z m365 -10 c0 -5 -2 -10 -4 -10 -3 0 -8 5 -11 10
-3 6 -1 10 4 10 6 0 11 -4 11 -10z m-617 -43 c-4 -6 -9 -3 -13 8 -5 13 -9 15
-14 7 -4 -7 -12 -10 -17 -7 -5 4 -3 12 4 20 10 11 15 11 29 -2 10 -9 15 -20
11 -26z m427 33 c0 -5 -8 -10 -17 -10 -15 0 -16 2 -3 10 19 12 20 12 20 0z
m-500 -14 c0 -3 -4 -8 -10 -11 -5 -3 -10 -1 -10 4 0 6 5 11 10 11 6 0 10 -2
10 -4z m400 -28 c0 -4 -4 -8 -9 -8 -6 0 -12 4 -15 8 -3 5 1 9 9 9 8 0 15 -4
15 -9z m120 -4 c0 -8 -5 -12 -10 -9 -6 4 -8 11 -5 16 9 14 15 11 15 -7z"/>
<path d="M7134 1622 c2 -4 -7 -12 -20 -19 -19 -9 -27 -8 -38 2 -16 17 -56 8
-56 -12 0 -8 -5 -11 -11 -7 -27 16 -71 5 -99 -26 -17 -19 -31 -27 -35 -21 -7
13 -45 -4 -58 -26 -7 -11 -12 -11 -22 -3 -10 8 -15 8 -22 -3 -4 -7 -16 -17
-27 -20 -10 -4 -16 -13 -13 -21 3 -8 -1 -17 -9 -20 -8 -3 -14 -1 -14 4 0 6 -4
10 -10 10 -5 0 -10 -6 -10 -14 0 -14 50 -31 83 -28 10 1 20 -5 23 -13 7 -16
39 -20 48 -6 9 13 46 1 46 -15 0 -8 10 -14 23 -14 13 0 28 -5 35 -12 9 -9 12
-8 12 5 0 26 17 20 24 -8 5 -21 12 -25 46 -25 22 0 40 -4 40 -10 0 -5 24 -10
53 -10 28 -1 63 -7 77 -14 17 -10 30 -11 42 -5 12 6 25 6 39 -2 12 -6 33 -9
48 -6 14 3 35 0 46 -6 30 -16 43 -17 49 -1 4 10 17 12 50 8 33 -5 52 -2 70 10
14 8 27 12 31 7 4 -7 40 -8 40 -1 0 1 17 4 38 5 20 2 50 13 66 24 16 12 36 21
45 21 9 0 21 9 28 20 7 11 20 20 29 20 9 0 19 6 22 14 3 8 18 20 34 28 23 11
27 19 25 43 -5 44 -37 59 -66 30 -19 -20 -34 -19 -32 2 1 13 -10 17 -54 19
-63 2 -134 17 -152 31 -18 13 -66 15 -73 3 -11 -18 -27 -10 -22 10 5 18 1 20
-26 18 -18 -1 -42 4 -55 11 -12 6 -77 14 -145 17 -67 3 -128 7 -135 9 -7 3
-11 1 -8 -3z m236 -32 c0 -5 -9 -10 -21 -10 -11 0 -17 5 -14 10 3 6 13 10 21
10 8 0 14 -4 14 -10z m-273 -26 c-3 -3 -12 -4 -19 -1 -8 3 -5 6 6 6 11 1 17
-2 13 -5z m-287 -84 c0 -5 -7 -10 -16 -10 -8 0 -12 5 -9 10 3 6 10 10 16 10 5
0 9 -4 9 -10z m570 0 c0 -5 -9 -10 -21 -10 -11 0 -17 5 -14 10 3 6 13 10 21
10 8 0 14 -4 14 -10z m468 -7 c-10 -2 -18 -13 -18 -24 0 -22 -15 -25 -24 -4
-6 16 19 35 44 34 11 -1 10 -3 -2 -6z m-493 -163 c3 -5 -3 -10 -14 -10 -11 0
-23 5 -26 10 -3 6 3 10 14 10 11 0 23 -4 26 -10z"/>
<path d="M7955 1510 c-4 -6 -15 -8 -26 -5 -20 7 -27 -9 -9 -20 22 -14 49 -13
55 2 7 20 -10 40 -20 23z"/>
<path d="M4775 1310 c-18 -17 -25 -18 -62 -9 -46 12 -103 -4 -103 -29 0 -9
-12 -11 -50 -6 -34 5 -50 3 -50 -5 0 -6 -7 -11 -15 -11 -8 0 -15 -6 -15 -14 0
-9 -7 -12 -20 -9 -11 3 -20 0 -20 -6 0 -6 -6 -11 -14 -11 -21 0 -30 -19 -28
-57 2 -19 -2 -33 -9 -33 -7 0 -9 9 -6 21 7 25 -14 35 -41 20 -21 -11 -46 -88
-31 -97 5 -3 9 -11 9 -17 -1 -7 -5 -6 -13 4 -7 9 -19 18 -27 22 -12 4 -11 6 3
6 23 1 22 31 -1 31 -10 0 -30 -12 -44 -27 -14 -16 -34 -35 -44 -45 -43 -37
-95 -99 -90 -106 3 -5 33 -7 68 -6 35 2 140 4 235 6 145 2 175 -1 190 -14 15
-13 41 -15 160 -11 119 4 145 2 158 -11 12 -12 48 -15 197 -15 119 0 184 -4
186 -10 5 -14 39 -14 47 -1 8 12 75 10 75 -2 0 -5 9 -4 20 2 10 6 48 12 82 14
35 2 65 5 68 6 6 3 60 8 115 12 22 2 44 9 48 16 4 6 14 12 21 12 8 0 16 6 19
14 4 9 14 12 26 9 12 -3 21 -1 21 6 0 6 9 11 20 11 11 0 20 5 20 10 0 6 8 10
18 10 9 0 28 14 41 30 13 17 30 30 38 30 16 0 153 133 153 149 0 5 9 13 20 16
11 3 20 13 20 21 0 8 4 13 9 10 5 -3 12 1 15 10 8 21 8 20 -31 29 -28 5 -32 4
-27 -9 4 -10 1 -16 -9 -16 -11 0 -13 6 -9 22 4 18 2 20 -14 13 -10 -4 -26 -8
-34 -7 -8 0 -87 4 -176 8 -160 7 -161 7 -183 -17 -18 -20 -23 -21 -31 -9 -5 8
-15 15 -22 15 -7 1 -24 7 -38 15 -15 9 -55 16 -97 16 -40 1 -74 3 -75 3 -10 5
-581 1 -586 -3 -9 -10 -42 -7 -42 4 0 16 -24 11 -45 -10z m77 -52 c-6 -6 -7 0
-4 19 5 21 7 23 10 9 2 -10 0 -22 -6 -28z m-117 12 c3 -6 -4 -10 -17 -10 -18
0 -20 2 -8 10 19 12 18 12 25 0z m62 -6 c-3 -3 -12 -4 -19 -1 -8 3 -5 6 6 6
11 1 17 -2 13 -5z m1332 -41 c2 -2 -3 -3 -11 -3 -9 0 -19 7 -22 16 -6 15 -4
15 11 3 10 -7 20 -15 22 -16z m-1589 2 c0 -9 -6 -12 -16 -8 -13 5 -13 7 -2 14
17 11 18 11 18 -6z m1197 -1 c-3 -3 -12 -4 -19 -1 -8 3 -5 6 6 6 11 1 17 -2
13 -5z m200 -126 c-3 -8 -6 -5 -6 6 -1 11 2 17 5 13 3 -3 4 -12 1 -19z m-1557
-24 c0 -19 -16 -18 -24 2 -11 27 -7 37 9 24 8 -7 15 -19 15 -26z m250 22 c0
-2 -7 -7 -16 -10 -8 -3 -12 -2 -9 4 6 10 25 14 25 6z m-390 -60 c0 -11 -19
-15 -25 -6 -3 5 1 10 9 10 9 0 16 -2 16 -4z m476 -43 c-10 -11 -36 -12 -36 -2
0 5 10 9 22 9 12 0 18 -3 14 -7z m-156 -17 c0 -7 -40 -14 -44 -7 -3 4 6 8 20
9 13 1 24 0 24 -2z m-63 -12 c-3 -3 -12 -4 -19 -1 -8 3 -5 6 6 6 11 1 17 -2
13 -5z m663 -38 c0 -2 -7 -7 -16 -10 -8 -3 -12 -2 -9 4 6 10 25 14 25 6z"/>
<path d="M2536 1297 c-11 -8 -16 -18 -13 -24 4 -6 -3 -8 -18 -6 -16 4 -27 -1
-37 -16 -7 -12 -18 -21 -25 -21 -7 0 -17 -9 -22 -19 -9 -16 -6 -20 15 -25 20
-5 30 -2 41 14 8 11 23 20 34 20 10 0 19 5 19 10 0 6 11 16 25 22 14 6 25 20
25 30 0 11 -4 17 -9 14 -5 -4 -11 -1 -13 4 -2 7 -10 6 -22 -3z"/>
<path d="M2363 1193 c-7 -2 -13 -11 -13 -18 0 -8 -7 -11 -20 -8 -11 3 -28 2
-37 -2 -10 -5 -22 -7 -27 -6 -16 3 -35 -21 -29 -37 6 -15 5 -15 -11 -3 -14 12
-25 12 -64 3 -26 -7 -81 -14 -123 -15 -42 -2 -81 -7 -87 -10 -5 -4 -45 -9 -88
-11 -42 -2 -80 -9 -83 -15 -4 -5 -20 -9 -36 -7 -17 1 -38 -1 -47 -6 -9 -4 -19
-4 -23 1 -6 11 -53 5 -70 -8 -5 -5 -57 -9 -115 -10 -69 -1 -108 -6 -115 -14
-7 -8 -40 -11 -109 -9 -67 2 -102 -1 -106 -9 -5 -7 -35 -11 -79 -10 -40 0 -81
-4 -91 -9 -10 -6 -38 -11 -62 -12 -30 -1 -50 -8 -67 -24 -24 -24 -47 -23 -37
2 4 11 -1 13 -22 8 -37 -9 -42 -13 -42 -30 0 -18 -10 -18 -24 0 -14 18 -76 2
-76 -19 0 -11 -7 -14 -25 -9 -19 5 -25 2 -25 -11 0 -14 -3 -15 -15 -5 -12 10
-16 9 -21 -4 -3 -9 -13 -16 -21 -16 -8 0 -11 -5 -7 -12 6 -10 4 -10 -7 0 -18
16 -29 15 -29 -3 0 -8 -8 -15 -18 -15 -24 0 -72 -41 -72 -60 0 -13 -2 -13 -9
-1 -11 16 -27 8 -60 -31 -13 -15 -32 -28 -42 -28 -19 0 -23 -9 -19 -45 2 -19
1 -19 -13 -1 -13 18 -15 17 -35 -12 -12 -16 -22 -38 -22 -47 0 -9 -9 -19 -20
-22 -11 -3 -20 -11 -20 -18 0 -7 -7 -15 -15 -19 -8 -3 -15 -11 -15 -19 0 -7
-8 -22 -18 -33 -25 -29 -65 -111 -60 -125 3 -9 11 -6 25 8 17 17 23 18 27 7 4
-10 17 -12 53 -8 26 3 241 8 478 10 332 4 433 8 443 18 9 9 27 11 56 6 23 -3
48 -4 54 -2 16 5 15 39 0 45 -7 2 -3 2 10 0 12 -2 32 2 43 8 15 8 24 8 32 0 8
-8 5 -11 -11 -11 -12 0 -22 -4 -22 -10 0 -5 16 -10 35 -10 19 0 35 5 35 10 0
6 18 10 39 10 31 0 41 4 46 20 7 21 30 27 40 10 5 -8 12 -7 22 2 9 7 24 12 34
10 10 -2 24 6 30 16 7 12 19 17 31 14 10 -2 33 7 52 22 19 14 40 26 47 26 8 0
33 7 56 16 35 14 41 19 32 31 -10 11 -5 13 29 7 27 -4 42 -3 42 4 0 6 8 13 18
16 9 4 39 26 67 51 27 25 55 45 61 45 7 0 25 15 42 34 16 19 39 37 51 41 12 4
27 18 33 31 6 13 19 24 29 24 10 0 20 8 24 18 3 9 33 40 66 67 32 28 57 56 54
63 -2 6 2 12 10 12 16 0 59 44 61 63 1 7 2 16 3 21 0 5 8 3 16 -4 12 -10 20
-7 45 20 35 38 36 40 11 40 -11 0 -23 5 -26 10 -7 11 -13 11 -32 3z m27 -38
c0 -8 -4 -15 -9 -15 -5 0 -11 7 -15 15 -3 9 0 15 9 15 8 0 15 -7 15 -15z m-70
-35 c0 -5 -7 -10 -15 -10 -8 0 -15 5 -15 10 0 6 7 10 15 10 8 0 15 -4 15 -10z
m-315 -40 c16 -7 13 -9 -17 -9 -21 -1 -38 4 -38 9 0 12 27 12 55 0z m179 -15
c-7 -17 -20 -20 -28 -6 -7 10 3 21 20 21 8 0 11 -6 8 -15z m-354 -15 c0 -5 -4
-10 -9 -10 -6 0 -13 5 -16 10 -3 6 1 10 9 10 9 0 16 -4 16 -10z m107 4 c-3 -3
-12 -4 -19 -1 -8 3 -5 6 6 6 11 1 17 -2 13 -5z m303 -14 c0 -5 -5 -10 -11 -10
-5 0 -7 5 -4 10 3 6 8 10 11 10 2 0 4 -4 4 -10z m-153 -6 c-3 -3 -12 -4 -19
-1 -8 3 -5 6 6 6 11 1 17 -2 13 -5z m82 -50 c-17 -21 -31 -17 -17 5 7 11 16
17 20 14 5 -2 4 -11 -3 -19z m-1163 -41 c-11 -11 -17 4 -9 23 7 18 8 18 11 1
2 -10 1 -21 -2 -24z m-56 -34 c0 -5 -7 -9 -15 -9 -15 0 -20 12 -9 23 8 8 24
-1 24 -14z m1157 4 c0 -8 -4 -10 -12 -3 -7 5 -16 6 -20 2 -5 -4 -5 -2 -2 4 9
15 34 13 34 -3z m-1272 -19 c-8 -9 -20 -14 -26 -12 -8 3 -5 10 5 21 10 9 22
15 27 11 5 -3 2 -12 -6 -20z m-55 -4 c0 -5 -5 -10 -11 -10 -5 0 -7 5 -4 10 3
6 8 10 11 10 2 0 4 -4 4 -10z m110 -11 c0 -5 -4 -9 -10 -9 -5 0 -10 7 -10 16
0 8 5 12 10 9 6 -3 10 -10 10 -16z m-243 -31 c-3 -8 -6 -5 -6 6 -1 11 2 17 5
13 3 -3 4 -12 1 -19z m1263 18 c0 -3 -4 -8 -10 -11 -5 -3 -10 -1 -10 4 0 6 5
11 10 11 6 0 10 -2 10 -4z m140 -26 c0 -5 -2 -10 -4 -10 -3 0 -8 5 -11 10 -3
6 -1 10 4 10 6 0 11 -4 11 -10z m-1540 -59 c0 -6 -4 -13 -10 -16 -5 -3 -10 1
-10 9 0 9 5 16 10 16 6 0 10 -4 10 -9z m-50 -31 c0 -11 -7 -20 -15 -20 -18 0
-19 6 -2 25 16 19 17 18 17 -5z m1450 -12 c0 -5 -7 -8 -15 -8 -15 0 -20 21 -8
33 7 7 23 -11 23 -25z m-1570 -42 c0 -3 -4 -8 -10 -11 -5 -3 -10 -1 -10 4 0 6
5 11 10 11 6 0 10 -2 10 -4z m1405 -26 c3 -6 -1 -7 -9 -4 -18 7 -21 14 -7 14
6 0 13 -4 16 -10z m-1479 -57 c-11 -11 -19 6 -11 24 8 17 8 17 12 0 3 -10 2
-21 -1 -24z m1459 17 c3 -6 -1 -7 -9 -4 -18 7 -21 14 -7 14 6 0 13 -4 16 -10z
m-475 -110 c0 -5 -2 -10 -4 -10 -3 0 -8 5 -11 10 -3 6 -1 10 4 10 6 0 11 -4
11 -10z m-920 -16 c0 -2 -11 -4 -25 -4 -14 0 -25 4 -25 9 0 4 11 6 25 3 14 -2
25 -6 25 -8z m1005 6 c3 -5 -1 -10 -10 -10 -9 0 -13 5 -10 10 3 6 8 10 10 10
2 0 7 -4 10 -10z m-1185 -49 c0 -6 -4 -13 -10 -16 -5 -3 -10 1 -10 9 0 9 5 16
10 16 6 0 10 -4 10 -9z m950 5 c0 -2 -7 -7 -16 -10 -8 -3 -12 -2 -9 4 6 10 25
14 25 6z m-775 -26 c-3 -5 -13 -10 -21 -10 -8 0 -12 5 -9 10 3 6 13 10 21 10
8 0 12 -4 9 -10z m485 -5 c0 -2 -9 -3 -19 -2 -11 0 -18 5 -15 9 4 6 34 0 34
-7z m-63 -1 c-3 -3 -12 -4 -19 -1 -8 3 -5 6 6 6 11 1 17 -2 13 -5z m-577 -14
c0 -5 -4 -10 -10 -10 -5 0 -10 5 -10 10 0 6 5 10 10 10 6 0 10 -4 10 -10z
m750 -6 c0 -2 -16 -4 -36 -4 -19 0 -33 4 -30 8 5 8 66 4 66 -4z"/>
<path d="M9120 1094 c-9 -10 -22 -13 -40 -9 -18 4 -31 1 -40 -10 -7 -8 -22
-13 -36 -11 -13 3 -26 0 -30 -5 -3 -6 -17 -14 -31 -20 -13 -5 -21 -13 -18 -19
3 -5 -1 -10 -10 -10 -10 0 -13 5 -9 12 5 8 2 9 -10 5 -10 -4 -20 -7 -22 -7
-10 0 -3 -19 9 -23 6 -2 2 -2 -10 -1 -12 2 -24 0 -28 -6 -3 -5 -12 -7 -20 -3
-8 3 -15 1 -15 -5 0 -5 -20 -18 -45 -29 -49 -20 -60 -43 -19 -43 14 0 23 4 19
10 -3 6 -1 10 4 10 6 0 11 -4 11 -8 0 -5 14 -9 31 -9 19 0 35 -6 41 -16 6 -12
22 -17 48 -17 22 0 40 -4 40 -10 0 -5 20 -10 44 -10 25 0 48 -4 51 -10 3 -5
24 -10 45 -10 21 0 42 -4 45 -10 3 -5 28 -10 55 -10 27 0 52 -5 56 -11 4 -6
20 -8 40 -4 27 5 34 3 34 -10 0 -11 11 -15 39 -15 22 0 43 -4 46 -10 3 -5 20
-10 38 -10 47 -1 80 -6 100 -14 10 -5 30 -6 45 -4 15 3 38 2 52 -2 32 -9 60 5
60 30 0 11 5 20 10 20 6 0 10 -7 10 -15 0 -19 36 -20 43 -2 3 9 16 12 36 9 25
-3 30 -1 26 11 -7 16 31 31 41 16 7 -12 44 -11 44 1 0 6 9 10 20 10 11 0 20 5
20 10 0 6 9 10 20 10 11 0 20 5 20 10 0 6 7 10 15 10 18 0 19 14 5 41 -7 11
-21 19 -37 19 -27 0 -153 35 -185 51 -28 14 -51 11 -44 -6 3 -9 0 -15 -9 -15
-9 0 -15 10 -15 24 0 14 -4 28 -10 31 -6 4 -10 -5 -10 -20 0 -17 -5 -25 -12
-23 -7 3 -13 12 -13 21 0 20 -42 44 -68 39 -9 -2 -15 -9 -12 -15 3 -7 -2 -2
-11 11 -9 12 -27 22 -40 22 -12 0 -26 5 -30 11 -3 6 -16 8 -28 5 -12 -3 -32 1
-44 10 -12 8 -36 14 -55 12 -18 -1 -39 2 -47 7 -8 5 -51 10 -95 10 -44 0 -85
4 -91 8 -7 4 -17 0 -24 -9z m97 -40 c-3 -3 -12 -4 -19 -1 -8 3 -5 6 6 6 11 1
17 -2 13 -5z m-227 -24 c0 -5 -2 -10 -4 -10 -3 0 -8 5 -11 10 -3 6 -1 10 4 10
6 0 11 -4 11 -10z m-120 -89 c0 -6 -4 -13 -10 -16 -5 -3 -10 1 -10 9 0 9 5 16
10 16 6 0 10 -4 10 -9z m103 -6 c-3 -9 -8 -14 -10 -11 -3 3 -2 9 2 15 9 16 15
13 8 -4z m31 -23 c3 -5 -1 -9 -9 -9 -8 0 -12 4 -9 9 3 4 7 8 9 8 2 0 6 -4 9
-8z m946 -37 c7 -9 8 -15 2 -15 -5 0 -12 7 -16 15 -3 8 -4 15 -2 15 2 0 9 -7
16 -15z m-130 -31 c0 -2 -9 -4 -20 -4 -11 0 -20 4 -20 9 0 5 9 7 20 4 11 -3
20 -7 20 -9z m-365 -4 c3 -5 3 -15 -1 -21 -6 -11 -23 6 -24 24 0 10 18 9 25
-3z m152 4 c-3 -3 -12 -4 -19 -1 -8 3 -5 6 6 6 11 1 17 -2 13 -5z m-225 -26
c-6 -6 -15 -8 -19 -4 -4 4 -1 11 7 16 19 12 27 3 12 -12z m128 -28 c0 -5 -2
-10 -4 -10 -3 0 -8 5 -11 10 -3 6 -1 10 4 10 6 0 11 -4 11 -10z m132 -15 c3 3
5 -2 5 -10 0 -17 -23 -21 -29 -5 -1 5 -14 11 -28 14 -14 2 -27 5 -30 5 -3 1 1
5 9 10 10 6 24 5 42 -4 14 -8 29 -12 31 -10z"/>
</g>
</svg>
